<svg width="22" height="25" viewBox="0 0 22 25" fill="none" xmlns="http://www.w3.org/2000/svg">
<path d="M8.96501 10.1155C10.9901 10.1155 12.6317 8.38021 12.6317 6.23967C12.6317 4.09914 10.9901 2.36389 8.96501 2.36389C6.93996 2.36389 5.29834 4.09914 5.29834 6.23967C5.29834 8.38021 6.93996 10.1155 8.96501 10.1155Z" fill="#C7CADD"/>
<path d="M10.0467 21.4328C9.84472 21.2216 9.71294 20.947 9.67107 20.65C9.62921 20.3531 9.67951 20.0498 9.81445 19.7856L10.1383 19.1396L9.47223 18.9264C9.2006 18.8366 8.96412 18.6555 8.79868 18.4107C8.63325 18.1658 8.54789 17.8707 8.55556 17.5699V16.2457C8.55505 15.9463 8.64567 15.6546 8.81405 15.4138C8.98242 15.173 9.21961 14.9959 9.49056 14.9085L10.1567 14.6954L9.8389 14.0494C9.70791 13.7888 9.65807 13.4912 9.69648 13.1989C9.73488 12.9066 9.85957 12.6346 10.0528 12.4216C9.58264 12.3564 9.10916 12.3219 8.63501 12.3182C7.23454 12.2834 5.84405 12.5756 4.56271 13.1741C3.28137 13.7726 2.14076 14.6626 1.22223 15.7806V20.7868C1.22223 20.9581 1.28661 21.1224 1.40122 21.2436C1.51582 21.3647 1.67126 21.4328 1.83334 21.4328H10.0467Z" fill="#C7CADD"/>
<path d="M20.5945 16.0325L19.3722 15.645C19.2876 15.3259 19.1686 15.0182 19.0178 14.7277L19.6289 13.5262C19.6525 13.4816 19.6612 13.4299 19.6534 13.3794C19.6456 13.329 19.6219 13.2828 19.5861 13.2484L18.7 12.3053C18.6659 12.2702 18.6224 12.247 18.5754 12.239C18.5284 12.2309 18.4801 12.2382 18.4372 12.2601L17.3067 12.9061C17.0284 12.7463 16.7356 12.6164 16.4328 12.5185L16.06 11.2266C16.0436 11.1789 16.0137 11.1378 15.9743 11.1089C15.9349 11.08 15.888 11.0647 15.84 11.0651H14.5689C14.5213 11.0665 14.4752 11.0833 14.4369 11.1134C14.3986 11.1434 14.3701 11.1852 14.355 11.233L13.9884 12.5249C13.6796 12.6199 13.3823 12.7521 13.1022 12.919L11.9961 12.273C11.9531 12.2489 11.904 12.2396 11.8558 12.2466C11.8075 12.2535 11.7626 12.2763 11.7272 12.3118L10.8289 13.242C10.7935 13.278 10.7702 13.3252 10.7625 13.3765C10.7548 13.4278 10.7631 13.4803 10.7861 13.5262L11.3972 14.7018C11.2335 14.9936 11.1003 15.3033 11 15.6256L9.7778 16.0196C9.73157 16.0337 9.69099 16.0635 9.66229 16.1043C9.63359 16.1452 9.61835 16.1948 9.61891 16.2457V17.5699C9.61835 17.6208 9.63359 17.6704 9.66229 17.7113C9.69099 17.7521 9.73157 17.7819 9.7778 17.796L11 18.19C11.0916 18.5064 11.2145 18.8117 11.3667 19.1009L10.7556 20.3282C10.7325 20.374 10.7242 20.4266 10.732 20.4779C10.7397 20.5291 10.763 20.5764 10.7984 20.6124L11.7089 21.5491C11.7442 21.5845 11.7892 21.6073 11.8374 21.6143C11.8857 21.6212 11.9348 21.612 11.9778 21.5878L13.1206 20.9419C13.3925 21.0965 13.6794 21.2199 13.9761 21.31L14.3428 22.6343C14.3582 22.6831 14.3877 22.7256 14.4272 22.7558C14.4667 22.7859 14.5141 22.8021 14.5628 22.8022H15.8156C15.8632 22.8008 15.9093 22.7839 15.9476 22.7539C15.9858 22.7239 16.0144 22.6821 16.0295 22.6343L16.3961 21.31C16.6894 21.221 16.9723 21.0975 17.2395 20.9419L18.3945 21.5878C18.4375 21.612 18.4866 21.6212 18.5348 21.6143C18.5831 21.6073 18.628 21.5845 18.6634 21.5491L19.5556 20.6124C19.5891 20.5751 19.6107 20.5276 19.6173 20.4765C19.6239 20.4255 19.6151 20.3736 19.5922 20.3282L18.9811 19.1138C19.1273 18.8308 19.2441 18.5319 19.3295 18.2223L20.5517 17.8283C20.5976 17.8127 20.638 17.7827 20.6674 17.7424C20.6969 17.702 20.7141 17.6531 20.7167 17.6022V16.2651C20.7182 16.2182 20.7076 16.1719 20.6861 16.1309C20.6645 16.0899 20.6329 16.0559 20.5945 16.0325ZM15.1984 19.0815C14.7944 19.0828 14.3992 18.9573 14.0627 18.721C13.7263 18.4847 13.4637 18.1482 13.3083 17.7541C13.1528 17.36 13.1115 16.926 13.1896 16.507C13.2677 16.0881 13.4616 15.703 13.7468 15.4007C14.032 15.0983 14.3957 14.8922 14.7918 14.8084C15.1879 14.7246 15.5986 14.767 15.9719 14.9301C16.3452 15.0932 16.6644 15.3697 16.8889 15.7246C17.1135 16.0796 17.2334 16.497 17.2334 16.924C17.2334 17.495 17.0192 18.0428 16.6377 18.4473C16.2562 18.8517 15.7386 19.0798 15.1984 19.0815Z" fill="#C7CADD"/>
</svg>
